<svg xmlns="http://www.w3.org/2000/svg" width="275.095" height="44.098" viewBox="0 0 275.095 44.098"><g transform="translate(8.85 7.993)"><path d="M1304.774,1469.112v12.382h16.612v-12.382l-8.3-6.559Zm20.709-2.968-11.243-9.7a1.761,1.761,0,0,0-2.252,0l-11.243,9.7a1.5,1.5,0,0,0-.1,2.218h0a1.72,1.72,0,0,0,1.235.51,1.676,1.676,0,0,0,1.119-.414l10.125-8.712,10.11,8.712a1.756,1.756,0,0,0,2.37-.1,1.506,1.506,0,0,0-.119-2.218Zm-11.531,4.308h0c0-.175.2-.319.458-.319h3.538c.254,0,.458.144.458.319v2.139c0,.175-.2.319-.458.319h-3.538c-.255,0-.458-.143-.458-.319Zm-1.66,2.139h0c0,.175-.2.319-.44.319H1308.3c-.254,0-.441-.143-.441-.319v-2.139c0-.175.187-.319.441-.319h3.556c.237,0,.44.144.44.319Zm1.66,3.191h0c0-.175.2-.318.458-.318h3.538c.254,0,.458.143.458.318v2.14c0,.175-.2.318-.458.318h-3.538c-.255,0-.458-.143-.458-.318Zm-1.66,2.14h0c0,.175-.2.318-.44.318H1308.3c-.254,0-.441-.143-.441-.318v-2.14c0-.175.187-.318.441-.318h3.556c.237,0,.44.143.44.318Z" transform="translate(-1300.203 -1456.035)" fill="#ed9022" fill-rule="evenodd"/></g><path d="M1296.407,1432.691a22.049,22.049,0,1,0,22.053,22.05A22.067,22.067,0,0,0,1296.407,1432.691Zm0,39.7a17.653,17.653,0,1,1,17.652-17.65A17.674,17.674,0,0,1,1296.407,1472.391Z" transform="translate(-1274.357 -1432.691)" fill="#ed9022"/><path d="M1304.148,1470.6a17.643,17.643,0,0,1-17.519-30.541c2.247-2,10.389-7.877,23.556-2.522a22.037,22.037,0,1,0-27.225,34.658C1285.747,1473.335,1296.293,1476.959,1304.148,1470.6Z" transform="translate(-1274.357 -1432.691)" fill="#f2f2f2"/><g transform="translate(49.469 17.853)"><g transform="translate(0)"><path d="M1427.51,1486.8a4.3,4.3,0,0,1,1.326,3.463,4.1,4.1,0,0,1-1.362,3.417,6.621,6.621,0,0,1-4.157,1.082h-1.677v3.517h-2.813v-12.606h4.454A6.475,6.475,0,0,1,1427.51,1486.8Zm-2.065,4.96a2.425,2.425,0,0,0,.505-1.66,1.758,1.758,0,0,0-.658-1.551,3.617,3.617,0,0,0-2.047-.46h-1.6v4.238h1.893A2.512,2.512,0,0,0,1425.444,1491.76Z" transform="translate(-1418.826 -1485.384)" fill="#fff"/><path d="M1464.708,1489.857q0,3.029-2.4,3.914l3.192,4.509h-3.463l-2.8-4.022H1457.3v4.022h-2.813v-12.606h4.779a6.853,6.853,0,0,1,4.193.992A3.827,3.827,0,0,1,1464.708,1489.857Zm-3.391,1.5a1.9,1.9,0,0,0,.523-1.488,1.594,1.594,0,0,0-.541-1.4,3.462,3.462,0,0,0-1.893-.379h-2.11v3.733h2.056A3.022,3.022,0,0,0,1461.317,1491.354Z" transform="translate(-1442.273 -1485.384)" fill="#fff"/><path d="M1501.861,1485.673v2.507h-6.276v2.6h5.645v2.4h-5.645v2.615h6.474v2.489h-9.288v-12.606Z" transform="translate(-1467.451 -1485.384)" fill="#fff"/><path d="M1526.214,1505.557v-2.4h6.42v2.4Z" transform="translate(-1489.443 -1496.883)" fill="#fff"/><path d="M1558.22,1498.279l-1.172-2.723h-5.284l-1.173,2.723H1547.6l5.446-12.606h2.723l5.446,12.606Zm-3.8-8.855-1.587,3.662h3.156Z" transform="translate(-1503.505 -1485.384)" fill="#fff"/><path d="M1600.311,1486.8a4.3,4.3,0,0,1,1.326,3.463,4.1,4.1,0,0,1-1.361,3.417,6.622,6.622,0,0,1-4.157,1.082h-1.677v3.517h-2.814v-12.606h4.454A6.473,6.473,0,0,1,1600.311,1486.8Zm-2.065,4.96a2.425,2.425,0,0,0,.505-1.66,1.759,1.759,0,0,0-.658-1.551,3.618,3.618,0,0,0-2.047-.46h-1.6v4.238h1.893A2.513,2.513,0,0,0,1598.247,1491.76Z" transform="translate(-1532.458 -1485.384)" fill="#fff"/><path d="M1635.967,1486.8a4.3,4.3,0,0,1,1.326,3.463,4.1,4.1,0,0,1-1.362,3.417,6.621,6.621,0,0,1-4.157,1.082H1630.1v3.517h-2.814v-12.606h4.454A6.475,6.475,0,0,1,1635.967,1486.8Zm-2.065,4.96a2.424,2.424,0,0,0,.505-1.66,1.758,1.758,0,0,0-.658-1.551,3.617,3.617,0,0,0-2.047-.46h-1.6v4.238h1.893A2.512,2.512,0,0,0,1633.9,1491.76Z" transform="translate(-1555.904 -1485.384)" fill="#fff"/><path d="M1673.165,1489.857q0,3.029-2.4,3.914l3.192,4.509H1670.5l-2.8-4.022h-1.948v4.022h-2.813v-12.606h4.779a6.854,6.854,0,0,1,4.193.992A3.827,3.827,0,0,1,1673.165,1489.857Zm-3.391,1.5a1.9,1.9,0,0,0,.523-1.488,1.594,1.594,0,0,0-.541-1.4,3.463,3.463,0,0,0-1.893-.379h-2.11v3.733h2.056A3.023,3.023,0,0,0,1669.774,1491.354Z" transform="translate(-1579.351 -1485.384)" fill="#fff"/><path d="M1710.079,1495.984a6.868,6.868,0,0,1-9.414,0,6.6,6.6,0,0,1,0-9.288,6.867,6.867,0,0,1,9.414,0,6.6,6.6,0,0,1,0,9.288Zm-.956-4.635a4.125,4.125,0,0,0-1.082-2.876,3.568,3.568,0,0,0-5.32,0,4.353,4.353,0,0,0,0,5.744,3.586,3.586,0,0,0,5.32,0A4.092,4.092,0,0,0,1709.123,1491.349Z" transform="translate(-1602.901 -1484.83)" fill="#fff"/><path d="M1745.091,1493.7l3.21-8.025h3.048l-5.068,12.606h-2.38l-5.068-12.606h3.048Z" transform="translate(-1629.257 -1485.384)" fill="#fff"/><path d="M1783.32,1498.279l-1.172-2.723h-5.284l-1.172,2.723H1772.7l5.447-12.606h2.723l5.446,12.606Zm-3.8-8.855-1.587,3.662h3.156Z" transform="translate(-1651.526 -1485.384)" fill="#fff"/><path d="M1816.729,1498.279v-12.606h2.813v10.1h5.374v2.507Z" transform="translate(-1680.48 -1485.384)" fill="#fff"/><path d="M1845.523,1516.354a1.612,1.612,0,1,1,1.127.46A1.535,1.535,0,0,1,1845.523,1516.354Z" transform="translate(-1699.113 -1503.774)" fill="#ed9022"/><path d="M1866.146,1495.236a4.152,4.152,0,0,0,3.391-1.641l1.8,1.858a6.8,6.8,0,0,1-9.856.577,6.662,6.662,0,0,1,.036-9.323,6.47,6.47,0,0,1,4.7-1.876,6.658,6.658,0,0,1,5.194,2.363l-1.749,1.984a4.1,4.1,0,0,0-3.318-1.659,3.866,3.866,0,0,0-2.714,1.037,3.612,3.612,0,0,0-1.127,2.8,3.813,3.813,0,0,0,1.064,2.822A3.511,3.511,0,0,0,1866.146,1495.236Z" transform="translate(-1708.672 -1484.83)" fill="#ed9022"/><path d="M1908.794,1495.984a6.868,6.868,0,0,1-9.414,0,6.6,6.6,0,0,1,0-9.288,6.867,6.867,0,0,1,9.414,0,6.6,6.6,0,0,1,0,9.288Zm-.956-4.635a4.126,4.126,0,0,0-1.082-2.876,3.568,3.568,0,0,0-5.32,0,4.352,4.352,0,0,0,0,5.744,3.585,3.585,0,0,0,5.32,0A4.093,4.093,0,0,0,1907.838,1491.349Z" transform="translate(-1733.573 -1484.83)" fill="#ed9022"/><path d="M1954.367,1490.344l-3.409,6.889h-1.677l-3.39-6.889v7.935h-2.814v-12.606h3.806l3.246,6.925,3.264-6.925h3.787v12.606h-2.813Z" transform="translate(-1763.565 -1485.384)" fill="#ed9022"/><path d="M1992.2,1516.354a1.612,1.612,0,1,1,1.127.46A1.535,1.535,0,0,1,1992.2,1516.354Z" transform="translate(-1795.566 -1503.774)" fill="#ed9022"/><path d="M2014.32,1498.279l-1.172-2.723h-5.284l-1.172,2.723H2003.7l5.447-12.606h2.723l5.446,12.606Zm-3.8-8.855-1.587,3.662h3.156Z" transform="translate(-1803.427 -1485.384)" fill="#ed9022"/><path d="M2049.717,1495.024a2.3,2.3,0,0,0,1.893.875,2.277,2.277,0,0,0,1.885-.875,3.742,3.742,0,0,0,.694-2.39v-6.961H2057v7.052a5.6,5.6,0,0,1-1.515,4.211,5.846,5.846,0,0,1-7.764-.009,5.583,5.583,0,0,1-1.524-4.2v-7.052h2.813v6.961A3.708,3.708,0,0,0,2049.717,1495.024Z" transform="translate(-1831.376 -1485.384)" fill="#ed9022"/></g></g></svg>